<svg xmlns="http://www.w3.org/2000/svg" width="850" height="850">
    <g>
        <title>background</title>
        <rect fill="none" id="canvas_background" height="850" width="850" y="-1" x="-1" />
    </g>
    <g transform="translate(50,875) scale(0.100000,-0.100000)" fill="#cc0000" stroke="none">
        <title>logo</title>
        <path id="d" d="M4647 5613 l-3 -2648 -22 -97 c-140 -607 -695 -1004 -1298 -928 -366         46 -676 248 -875 571 -48 79 -111 237 -136 344 -28 123 -25 408 5 529 53 211         163 407 313 557 65 65 167 144 175 136 3 -3 52 -85 108 -182 56 -98 106 -178         110 -179 5 0 230 384 501 854 l493 855 -500 3 c-275 1 -722 1 -994 0 l-494 -3         81 -140 c44 -77 91 -159 105 -182 l24 -41 -78 -53 c-165 -111 -355 -288 -485         -448 -262 -325 -428 -705 -493 -1126 -25 -164 -25 -493 0 -655 124 -811 655         -1493 1400 -1799 295 -121 560 -173 886 -172 373 0 698 77 1027 241 l153 77 0         -159 0 -158 560 0 560 0 0 3725 0 3725 -560 0 -560 0 -3 -2647z" />
    </g>
</svg>