<svg xmlns="http://www.w3.org/2000/svg" width="3600" height="900">
    <g>
        <title>background</title>
        <rect fill="none" id="canvas_background" height="900" width="3600" y="-1" x="-1" />
    </g>
    <g transform="translate(0.000000,894.000000) scale(0.100000,-0.100000)" fill="#cc0000" stroke="none">
        <title>daemon</title>
        <path id="d" d="M4647 5613 l-3 -2648 -22 -97 c-140 -607 -695 -1004 -1298 -928 -366         46 -676 248 -875 571 -48 79 -111 237 -136 344 -28 123 -25 408 5 529 53 211         163 407 313 557 65 65 167 144 175 136 3 -3 52 -85 108 -182 56 -98 106 -178         110 -179 5 0 230 384 501 854 l493 855 -500 3 c-275 1 -722 1 -994 0 l-494 -3         81 -140 c44 -77 91 -159 105 -182 l24 -41 -78 -53 c-165 -111 -355 -288 -485         -448 -262 -325 -428 -705 -493 -1126 -25 -164 -25 -493 0 -655 124 -811 655         -1493 1400 -1799 295 -121 560 -173 886 -172 373 0 698 77 1027 241 l153 77 0         -159 0 -158 560 0 560 0 0 3725 0 3725 -560 0 -560 0 -3 -2647z" />
        <path id="a" d="M8385 5419 c-994 -61 -1840 -771 -2085 -1749 -50 -199 -64 -323 -64 -555 0 -380 71 -688 234 -1020 244 -494 650 -883 1152 -1100 652 -282 1411 -245 2029 99 l114 64 3 -174 2 -174 535 0 535 0 0 2305 0 2305 -535 0 -535 0 -2 -174 -3 -174 -114 64 c-213 118 -477 212 -715 253 -102 18 -164 24 -361 35 -33 2 -118 -1 -190 -5z m360 -1105 c485 -84 872 -456 980 -944 23 -102 31 -321 16 -418 -27 -171 -72 -304 -145 -432 -171 -298 -435 -501 -763 -586 -133 -35 -356 -44 -496 -20 -503 86 -886 458 -994 966 -12 60 -18 129 -18 235 0 106 6 175 18 235 75 351 281 640 584 819 120 71 235 111 448 155 53 10 288 5 370 -10z" />
        <path id="e" d="M13300 5394 c-837 -117 -1538 -670 -1845 -1457 -103 -264 -149 -522 -149 -832 0 -307 45 -556 149 -821 244 -624 736 -1109 1358 -1338 243 -90 446 -127 733 -133 323 -8 555 28 839 127 307 107 648 329 881 572 89 93 214 246 214 263 0 5 -143 50 -318 98 -174 49 -438 123 -587 164 l-270 75 -85 -50 c-291 -174 -671 -214 -997 -106 -221 74 -428 219 -567 398 -58 75 -156 230 -156 248 0 5 756 8 1679 8 l1679 0 16 88 c198 1101 -423 2186 -1475 2576 -119 44 -258 80 -409 108 -153 27 -533 34 -690 12z m519 -1090 c288 -51 553 -207 731 -430 57 -70 140 -202 140 -221 0 -11 -203 -13 -1085 -13 -794 0 -1085 3 -1085 11 0 6 17 39 37 73 265 442 759 669 1262 580z" />
        <path id="m" d="M16370 3110 l0 -2300 560 0 560 0 0 1128 c0 1158 4 1299 40 1451 134 564 680 951 1259 893 151 -15 269 -49 407 -117 280 -137 493 -377 594 -668 61 -178 60 -142 60 -1473 l0 -1214 565 0 564 0 4 1233 c3 1362 -1 1266 68 1466 113 326 393 604 719 714 301 102 637 83 905 -50 325 -162 541 -431 637 -793 l22 -85 3 -1242 4 -1243 559 0 560 0 0 1253 c0 1185 -1 1259 -19 1382 -112 753 -581 1396 -1264 1730 -215 105 -389 162 -627 206 -137 26 -482 36 -630 20 -543 -61 -1042 -305 -1413 -690 l-88 -91 -80 84 c-275 290 -680 531 -1065 631 -193 51 -317 67 -540 72 -162 4 -241 2 -343 -11 -288 -37 -591 -135 -823 -267 -38 -21 -72 -39 -74 -39 -2 0 -4 72 -4 160 l0 160 -560 0 -560 0 0 -2300z" />
        <path id="o" d="M26940 5396 c-996 -137 -1774 -867 -1969 -1846 -46 -228 -53 -581 -16 -800 154 -920 821 -1648 1719 -1876 313 -79 703 -88 1016 -23 638 134 1172 510 1512 1065 157 254 263 552 309 858 29 192 29 485 0 671 -116 758 -582 1396 -1264 1730 -215 105 -387 162 -627 207 -137 25 -537 34 -680 14z m533 -1097 c482 -96 857 -475 953 -964 25 -130 23 -339 -4 -471 -105 -495 -498 -871 -1001 -955 -36 -6 -124 -11 -196 -11 -336 0 -634 127 -868 371 -220 229 -337 518 -337 834 0 345 132 655 376 887 287 273 685 387 1077 309z" />
        <path id="n" d="M30010 3110 l0 -2300 555 0 554 0 4 1218 3 1217 23 100 c95 422 390 754 784 879 143 46 222 58 377 58 251 0 470 -71 680 -220 255 -181 433 -478 476 -792 11 -85 14 -327 14 -1282 l0 -1178 560 0 560 0 0 1253 c0 1185 -1 1259 -19 1382 -112 753 -581 1396 -1264 1730 -215 105 -389 162 -627 206 -137 26 -482 36 -630 20 -295 -33 -585 -122 -838 -256 -46 -25 -86 -45 -88 -45 -2 0 -4 70 -4 155 l0 155 -560 0 -560 0 0 -2300z" />
    </g>
</svg>